HIERARCHY
ROOT Hips
{
	OFFSET 0.00 0.00 0.00
	CHANNELS 6 Xposition Yposition Zposition Yrotation Xrotation Zrotation
	JOINT Spine
	{
		OFFSET	0.0000	9.2263	1.5771
		CHANNELS 3 Xrotation Yrotation Zrotation
		JOINT Spine1
		{
			OFFSET	0.0000	16.2540	-0.1656
			CHANNELS 3 Xrotation Yrotation Zrotation
			JOINT Spine2
			{
				OFFSET	0.0000	13.6396	-1.2923
				CHANNELS 3 Xrotation Yrotation Zrotation
				JOINT Neck
				{
					OFFSET	0.0000	13.8774	-4.3542
					CHANNELS 3 Xrotation Yrotation Zrotation
					JOINT Neck1
					{
						OFFSET	0.0000	4.3400	0.9269
						CHANNELS 3 Xrotation Yrotation Zrotation
						JOINT Head
						{
							OFFSET	0.0000	4.0266	0.8585
							CHANNELS 3 Xrotation Yrotation Zrotation
							End Site
							{
								OFFSET 0.0000 23.0297 0.1231
							}
						}
					}
				}
				JOINT LeftShoulder
				{
					OFFSET	6.1442	10.1870	-3.7932
					CHANNELS 3 Zrotation Xrotation Yrotation
					JOINT LeftArm
					{
						OFFSET	12.3191	-1.1130	-1.7935
						CHANNELS 3 Zrotation Xrotation Yrotation
						JOINT LeftForeArm
						{
							OFFSET	27.6870	0.0000	0.0000
							CHANNELS 3 Xrotation Zrotation Yrotation
							JOINT LeftHand
							{
								OFFSET	27.8738	0.0000	0.0000
								CHANNELS 3 Zrotation Yrotation Xrotation
								JOINT LeftHandThumb1
								{
									OFFSET	2.3785	-1.0029	2.6209
									CHANNELS 3 Zrotation Xrotation Yrotation
									JOINT LeftHandThumb2
									{
										OFFSET	3.3624	-1.0029	2.8398
										CHANNELS 3 Zrotation Xrotation Yrotation
										JOINT LeftHandThumb3
										{
											OFFSET	4.5018	-1.3445	2.1783
											CHANNELS 3 Zrotation Xrotation Yrotation
											End Site
											{
												OFFSET 2.6000 -1.0000 1.0000
											}
										}
									}
								}
								JOINT LeftHandMiddle1
								{
									OFFSET	10.4639	0.6148	0.4298
									CHANNELS 3 Zrotation Xrotation Yrotation
									JOINT LeftHandMiddle2
									{
										OFFSET	5.7921	0.0000	0.0000
										CHANNELS 3 Zrotation Xrotation Yrotation
										JOINT LeftHandMiddle3
										{
											OFFSET	3.7132	0.0000	0.0000
											CHANNELS 3 Zrotation Xrotation Yrotation
											End Site
											{
												OFFSET 2.3000 0.0000 0.0000
											}
										}
									}
								}
								JOINT LeftHandIndex1
								{
									OFFSET	10.3945	0.6148	2.7055
									CHANNELS 3 Zrotation Xrotation Yrotation
									JOINT LeftHandIndex2
									{
										OFFSET	5.5493	0.0000	0.0000
										CHANNELS 3 Zrotation Xrotation Yrotation
										JOINT LeftHandIndex3
										{
											OFFSET	3.3911	0.0000	0.0000
											CHANNELS 3 Zrotation Xrotation Yrotation
											End Site
											{
												OFFSET 2.5000 0.0000 0.0000
											}
										}
									}
								}
								JOINT LeftHandRing1
								{
									OFFSET	10.3252	0.3211	-1.8755
									CHANNELS 3 Zrotation Xrotation Yrotation
									JOINT LeftHandRing2
									{
										OFFSET	5.4452	0.0000	0.0000
										CHANNELS 3 Zrotation Xrotation Yrotation
										JOINT LeftHandRing3
										{
											OFFSET	3.7132	0.0000	0.0000
											CHANNELS 3 Zrotation Xrotation Yrotation
											End Site
											{
												OFFSET 2.0000 0.0000 0.0000
											}
										}
									}
								}
								JOINT LeftHandPinky1
								{
									OFFSET	10.0130	-0.0783	-3.9671
									CHANNELS 3 Zrotation Xrotation Yrotation
									JOINT LeftHandPinky2
									{
										OFFSET	3.6763	0.0000	0.0000
										CHANNELS 3 Zrotation Xrotation Yrotation
										JOINT LeftHandPinky3
										{
											OFFSET	2.8113	0.0000	0.0000
											CHANNELS 3 Zrotation Xrotation Yrotation
											End Site
											{
												OFFSET 2.9000 0.0000 0.0000
											}
										}
									}
								}
							}
						}
					}
				}
				JOINT RightShoulder
				{
					OFFSET	-6.1402	10.1870	-3.7932
					CHANNELS 3 Zrotation Xrotation Yrotation
					JOINT RightArm
					{
						OFFSET	-12.3231	-1.1130	-1.7935
						CHANNELS 3 Zrotation Xrotation Yrotation
						JOINT RightForeArm
						{
							OFFSET	-27.6870	0.0000	0.0000
							CHANNELS 3 Xrotation Zrotation Yrotation
							JOINT RightHand
							{
								OFFSET	-27.8738	0.0000	0.0000
								CHANNELS 3 Zrotation Yrotation Xrotation
								JOINT RightHandThumb1
								{
									OFFSET	-2.5178	-0.9367	2.5137
									CHANNELS 3 Zrotation Xrotation Yrotation
									JOINT RightHandThumb2
									{
										OFFSET	-3.2638	-1.0870	2.9669
										CHANNELS 3 Zrotation Xrotation Yrotation
										JOINT RightHandThumb3
										{
											OFFSET	-4.4165	-1.3703	2.1350
											CHANNELS 3 Zrotation Xrotation Yrotation
											End Site
											{
												OFFSET -2.6000 -1.0000 1.0000
											}
										}
									}
								}
								JOINT RightHandIndex1
								{
									OFFSET	-10.4665	0.4896	2.7120
									CHANNELS 3 Zrotation Xrotation Yrotation
									JOINT RightHandIndex2
									{
										OFFSET	-5.3768	0.0000	0.0000
										CHANNELS 3 Zrotation Xrotation Yrotation
										JOINT RightHandIndex3
										{
											OFFSET	-3.3855	0.0000	0.0000
											CHANNELS 3 Zrotation Xrotation Yrotation
											End Site
											{
												OFFSET -2.6000 0.0000 0.0000
											}
										}
									}
								}
								JOINT RightHandMiddle1
								{
									OFFSET	-10.7596	0.4896	0.4278
									CHANNELS 3 Zrotation Xrotation Yrotation
									JOINT RightHandMiddle2
									{
										OFFSET	-5.6168	0.0000	0.0000
										CHANNELS 3 Zrotation Xrotation Yrotation
										JOINT RightHandMiddle3
										{
											OFFSET	-3.7364	0.0000	0.0000
											CHANNELS 3 Zrotation Xrotation Yrotation
											End Site
											{
												OFFSET -2.3000 0.0000 0.0000
											}
										}
									}
								}
								JOINT RightHandRing1
								{
									OFFSET	-10.4702	0.3879	-1.9363
									CHANNELS 3 Zrotation Xrotation Yrotation
									JOINT RightHandRing2
									{
										OFFSET	-5.4013	0.0000	0.0000
										CHANNELS 3 Zrotation Xrotation Yrotation
										JOINT RightHandRing3
										{
											OFFSET	-3.3916	0.0000	0.0000
											CHANNELS 3 Zrotation Xrotation Yrotation
											End Site
											{
												OFFSET -2.2000 0.0000 0.0000
											}
										}
									}
								}
								JOINT RightHandPinky1
								{
									OFFSET	-9.9715	-0.1191	-3.9540
									CHANNELS 3 Zrotation Xrotation Yrotation
									JOINT RightHandPinky2
									{
										OFFSET	-3.6528	0.0000	0.0000
										CHANNELS 3 Zrotation Xrotation Yrotation
										JOINT RightHandPinky3
										{
											OFFSET	-2.7820	0.0000	0.0000
											CHANNELS 3 Zrotation Xrotation Yrotation
											End Site
											{
												OFFSET -2.9000 0.0000 0.0000
											}
										}
									}
								}
							}
						}
					}
				}
			}
		}
	}
	JOINT LeftUpLeg
	{
		OFFSET	9.6338	-3.2733	0.0000
		CHANNELS 3 Xrotation Yrotation Zrotation
		JOINT LeftLeg
		{
			OFFSET	0.0000	-41.7300	-1.7300
			CHANNELS 3 Xrotation Yrotation Zrotation
			JOINT LeftFoot
			{
				OFFSET	0.0126	-39.1900	-0.8477
				CHANNELS 3 Xrotation Yrotation Zrotation
				JOINT LeftToeBase
				{
					OFFSET	-0.1833	-12.1931	8.2823
					CHANNELS 3 Xrotation Yrotation Zrotation
					End Site
					{
						OFFSET 0.0000 0.0000 10.1681
					}
				}
			}
		}
	}
	JOINT RightUpLeg
	{
		OFFSET	-9.6338	-3.2733	0.0000
		CHANNELS 3 Xrotation Yrotation Zrotation
		JOINT RightLeg
		{
			OFFSET	0.0000	-41.7300	-1.7300
			CHANNELS 3 Xrotation Yrotation Zrotation
			JOINT RightFoot
			{
				OFFSET	0.0126	-39.1900	-0.8477
				CHANNELS 3 Xrotation Yrotation Zrotation
				JOINT RightToeBase
				{
					OFFSET	-0.1833	-12.1931	8.2823
					CHANNELS 3 Xrotation Yrotation Zrotation
					End Site
					{
						OFFSET 0.0032 0.0000 10.1681
					}
				}
			}
		}
	}
}
MOTION
Frames: 4
Frame Time: 0.0333333
4.3859 93.9929 1.3285 3.0913 -0.7909 0.4855 4.8609 -4.3227 -1.0490 2.0477 -3.1107 0.5569 2.0372 -3.0675 0.6605 0.6551 2.6870 -1.3253 -0.0000 0.0000 -0.0000 -1.6845 6.8560 -1.7627 -15.0136 2.6398 -8.5247 -50.8935 18.0059 -13.2484 -0.0000 0.0000 -27.4172 -13.9961 8.3640 10.3116 4.6417 10.6992 10.5571 3.9565 -1.6720 -0.7761 25.1125 -0.8218 -8.6653 -26.2819 0.0020 -0.5806 -11.9469 0.0003 -0.0031 -13.9468 0.0004 -0.0036 -17.4973 0.2750 -6.7733 -15.1133 0.0005 -0.0039 -15.1133 0.0005 -0.0039 -28.4857 0.0022 1.7696 -19.4449 0.0009 -0.0050 -21.4420 0.0010 -0.0055 -32.1006 -0.0628 0.7398 -17.7411 0.0007 -0.0046 -17.7411 0.0007 -0.0046 14.6371 1.8854 5.2397 56.2806 20.6601 3.0634 -0.0000 0.0000 9.4775 10.3836 7.6449 13.0861 1.8852 18.7961 -12.6095 -5.5504 -1.3300 -7.8790 -16.8775 -17.6777 -0.7582 13.3884 0.2656 7.6530 23.8775 0.0007 0.0032 10.5789 0.0001 0.0015 16.3028 0.0004 3.5640 35.2327 0.0014 0.0046 20.4166 0.0005 0.0028 19.2042 0.0006 0.9148 47.7054 0.0026 0.0059 23.3918 0.0006 0.0031 24.5085 0.0006 -0.6848 28.7088 0.0010 0.0038 15.9804 0.0003 0.0022 -11.9983 6.8204 -2.7673 28.4047 -7.6939 3.5725 -14.9302 -0.2420 2.3065 -6.8229 0.0000 -0.0000 -35.4631 -8.0622 -8.7630 72.5698 0.2759 0.3801 -8.4570 -0.7518 7.2654 -7.6467 -0.0000 -0.0000 
4.1213 94.4326 1.1415 3.8490 -0.5351 0.7247 4.9648 -5.3017 -1.2518 2.1018 -4.1502 1.0592 2.0715 -4.1056 1.1888 0.6961 3.2169 -1.0455 -0.0000 0.0000 -0.0000 -1.2468 8.2517 -2.1070 -14.6325 2.6532 -8.7783 -48.0922 19.5632 -16.3249 0.0000 -0.0000 -34.4434 -13.2654 7.7953 9.2783 4.6417 10.6992 10.5571 4.2409 -2.6752 -1.2574 25.0140 -0.6826 -8.2005 -25.9615 0.0019 -0.8126 -11.9314 0.0003 -0.0031 -13.9312 0.0004 -0.0036 -17.0032 0.2203 -7.1500 -15.1047 0.0005 -0.0039 -15.1047 0.0005 -0.0039 -27.8565 0.0022 1.7118 -19.5012 0.0009 -0.0050 -21.4985 0.0010 -0.0055 -31.7674 -0.0617 0.7191 -17.7638 0.0007 -0.0046 -17.7637 0.0007 -0.0046 14.7010 1.8102 4.8735 57.7518 20.0698 -0.3915 0.0000 0.0000 9.5660 13.7552 6.2901 12.5547 1.8852 18.7961 -12.6095 -5.4878 -1.2038 -7.9446 -16.8777 -17.6782 -0.7567 13.6510 0.2781 7.6146 23.9250 0.0007 0.0032 10.6264 0.0001 0.0015 16.3888 0.0004 3.5823 35.2440 0.0014 0.0046 20.4278 0.0005 0.0028 19.3811 0.0006 0.9748 47.6581 0.0026 0.0058 23.3444 0.0006 0.0031 24.5523 -0.0016 -0.5806 28.7153 0.0010 0.0038 15.9855 0.0003 0.0022 -5.7625 7.2436 -3.4089 22.8129 -9.0954 4.9265 -15.6495 -0.2284 1.2460 -6.6227 0.0000 -0.0000 -40.7376 -7.5084 -8.9314 65.9597 -0.7629 0.8872 -13.1362 -1.1375 7.6174 -6.9139 0.0000 -0.0000 
3.8292 94.2325 0.9429 4.5506 0.0359 1.0317 4.9678 -6.0390 -1.6941 2.1969 -5.1138 1.7433 2.1224 -5.0608 1.8928 0.5511 3.7530 -1.1714 -0.0000 0.0000 -0.0000 -1.5293 9.3010 -2.2238 -14.1911 2.6628 -9.0556 -44.8674 20.7213 -19.0035 0.0000 -0.0000 -41.7892 -9.8991 7.3864 9.0908 4.6417 10.6992 10.5571 4.1870 -3.3481 -1.7371 24.9219 -0.5765 -7.8465 -25.8540 0.0019 -0.9683 -11.8992 0.0003 -0.0031 -13.8989 0.0004 -0.0036 -17.1606 0.2196 -7.1600 -15.0927 0.0005 -0.0039 -15.0927 0.0005 -0.0039 -27.6850 0.0022 1.6512 -19.5440 0.0009 -0.0050 -21.5415 0.0011 -0.0055 -31.4884 -0.0322 0.3648 -17.7329 0.0007 -0.0046 -17.7329 0.0007 -0.0046 14.5306 1.6898 4.3843 59.1701 19.5165 -3.5542 -0.0000 0.0000 10.2598 16.1078 3.7177 12.3380 1.8852 18.7961 -12.6095 -5.3757 -0.9849 -7.7367 -16.8818 -17.6861 -0.7309 14.2435 0.2675 7.6445 23.8707 0.0007 0.0032 10.5721 0.0001 0.0015 16.6868 0.0004 3.5771 35.2755 0.0015 0.0046 20.4593 0.0005 0.0028 19.7022 0.0006 1.1056 47.6091 0.0026 0.0058 23.2951 0.0006 0.0031 24.7961 -0.0054 -0.2761 28.6694 0.0010 0.0038 15.9354 0.0003 0.0022 -0.6866 8.0542 -3.5567 18.5222 -7.8152 5.5768 -17.0210 -3.2827 -0.2226 -6.4838 0.0000 -0.0000 -44.4116 -6.5448 -8.2351 55.5244 -2.1067 0.0448 -12.5248 -1.0427 7.0358 -6.4925 0.0000 -0.0000 
3.4627 93.5883 0.9384 5.5751 0.7677 2.1017 4.4827 -7.0184 -3.3489 2.4911 -5.9449 2.6827 2.3264 -5.8691 2.8658 0.3897 4.2947 -1.7311 -0.0000 0.0000 -0.0000 -2.4709 10.0545 -2.0567 -13.8360 2.7040 -9.4484 -41.1432 21.1703 -21.7038 0.0000 -0.0000 -47.9744 -5.4228 6.6881 9.5437 4.6417 10.6993 10.5571 4.0586 -4.0844 -2.4592 24.7912 -0.4470 -7.4148 -25.3663 0.0019 -1.0804 -11.8851 0.0003 -0.0031 -13.8848 0.0004 -0.0036 -16.7416 0.2281 -7.1101 -15.0963 0.0005 -0.0039 -15.0963 0.0005 -0.0039 -27.3095 0.0021 1.5901 -19.5839 0.0009 -0.0050 -21.5815 0.0011 -0.0055 -31.0800 0.0007 -0.0959 -17.7233 0.0007 -0.0046 -17.7233 0.0007 -0.0046 14.2430 1.5618 3.8975 60.4302 18.7343 -6.1179 0.0000 -0.0000 10.8251 17.9662 0.8091 11.5500 1.8852 18.7960 -12.6095 -5.2038 -0.4235 -7.1580 -16.8865 -17.6954 -0.7005 15.0903 0.2616 7.6596 23.9688 0.0007 0.0032 10.6702 0.0001 0.0015 16.8723 0.0004 3.5259 35.2836 0.0015 0.0046 20.4675 0.0005 0.0028 20.1129 0.0006 1.1897 47.5498 0.0026 0.0058 23.2357 0.0006 0.0031 24.9223 -0.0108 -0.0451 28.4288 0.0010 0.0038 15.6915 0.0003 0.0021 4.2864 9.7283 -3.8129 14.3215 -5.7215 5.4389 -18.3868 -8.3336 -2.0728 -6.6252 0.0000 -0.0000 -44.7581 -4.9873 -7.2143 40.3576 -3.9866 -2.6182 -10.1837 -0.8815 7.1138 -6.5108 0.0000 -0.0000 
